HIERARCHY
ROOT Hips
{
	OFFSET 0.000000 0.000000 0.000000
	CHANNELS 6 Xposition Yposition Zposition Yrotation Xrotation Zrotation
	JOINT Chest
	{
		OFFSET 0.000000 -0.009281 11.569106
		CHANNELS 3 Yrotation Xrotation Zrotation
		JOINT Chest2
		{
			OFFSET -0.000000 0.016865 9.269641
			CHANNELS 3 Yrotation Xrotation Zrotation
			JOINT Chest3
			{
				OFFSET -0.000000 0.000001 8.374491
				CHANNELS 3 Yrotation Xrotation Zrotation
				JOINT Chest4
				{
					OFFSET -0.000000 0.000001 8.374493
					CHANNELS 3 Yrotation Xrotation Zrotation
					JOINT Neck
					{
						OFFSET -0.000000 0.000002 12.152554
						CHANNELS 3 Yrotation Xrotation Zrotation
						JOINT Head
						{
							OFFSET -0.000000 0.040101 7.802319
							CHANNELS 3 Yrotation Xrotation Zrotation
							End Site
							{
								OFFSET -0.000000 0.020947 14.853096
							}
						}
					}
					JOINT RightCollar
					{
						OFFSET 2.894404 0.000001 6.791374
						CHANNELS 3 Yrotation Xrotation Zrotation
						JOINT RightShoulder
						{
							OFFSET 13.574684 0.000001 0.000000
							CHANNELS 3 Yrotation Xrotation Zrotation
							JOINT RightElbow
							{
								OFFSET 23.923903 0.000002 0.000000
								CHANNELS 3 Yrotation Xrotation Zrotation
								JOINT RightWrist
								{
									OFFSET 19.846718 0.012767 0.000000
									CHANNELS 3 Yrotation Xrotation Zrotation
									End Site
									{
										OFFSET 14.973145 0.000001 0.000000
									}
								}
							}
						}
					}
					JOINT LeftCollar
					{
						OFFSET -2.894404 0.000001 6.791374
						CHANNELS 3 Yrotation Xrotation Zrotation
						JOINT LeftShoulder
						{
							OFFSET -13.574684 -0.000001 0.000000
							CHANNELS 3 Yrotation Xrotation Zrotation
							JOINT LeftElbow
							{
								OFFSET -23.923903 -0.000002 0.000000
								CHANNELS 3 Yrotation Xrotation Zrotation
								JOINT LeftWrist
								{
									OFFSET -19.846718 0.012763 0.000000
									CHANNELS 3 Yrotation Xrotation Zrotation
									End Site
									{
										OFFSET -14.973145 -0.000001 0.000000
									}
								}
							}
						}
					}
				}
			}
		}
	}
	JOINT RightHip
	{
		OFFSET 9.469263 0.004643 0.045487
		CHANNELS 3 Yrotation Xrotation Zrotation
		JOINT RightKnee
		{
			OFFSET 0.000000 0.002661 -40.478676
			CHANNELS 3 Yrotation Xrotation Zrotation
			JOINT RightAnkle
			{
				OFFSET 0.000000 0.049106 -35.224068
				CHANNELS 3 Yrotation Xrotation Zrotation
				JOINT RightToe
				{
					OFFSET -0.000001 12.539529 -6.151390
					CHANNELS 3 Yrotation Xrotation Zrotation
					End Site
					{
						OFFSET -0.000001 5.044994 -1.291870
					}
				}
			}
		}
	}
	JOINT LeftHip
	{
		OFFSET -9.469263 0.004641 0.045487
		CHANNELS 3 Yrotation Xrotation Zrotation
		JOINT LeftKnee
		{
			OFFSET 0.000000 0.002661 -40.478676
			CHANNELS 3 Yrotation Xrotation Zrotation
			JOINT LeftAnkle
			{
				OFFSET 0.000000 0.049106 -35.224068
				CHANNELS 3 Yrotation Xrotation Zrotation
				JOINT LeftToe
				{
					OFFSET -0.000001 12.539529 -6.151390
					CHANNELS 3 Yrotation Xrotation Zrotation
					End Site
					{
						OFFSET -0.000001 5.044994 -1.291870
					}
				}
			}
		}
	}
}
MOTION
Frames: 15
Frame Time: 0.016667
11.680490 -9.447511 83.501282 -2.623765 -0.577141 -111.999010 -1.070624 -5.014005 1.263002 -0.452786 -2.225022 0.538761 -0.452786 -2.225021 0.538764 -0.337585 -1.669167 0.402373 1.446197 -12.026256 -3.790086 1.144124 13.829838 -6.628641 10.506904 8.970442 -0.917681 43.171642 -17.588174 -13.603810 -30.088892 -60.860373 86.975130 -48.080768 44.147583 49.471221 -7.585229 7.199953 -5.804941 -42.419129 -12.965406 17.357959 -11.241581 -65.154308 -50.641290 36.083241 25.649421 -74.771133 -0.617126 0.836838 13.359372 -2.297250 -12.523967 3.300760 -0.186311 4.824275 -0.952251 0.147406 -0.522354 0.006845 1.784899 -0.822938 -9.695723 2.252338 -2.523990 -3.999668 -20.171432 0.697369 -3.377701 6.179942 0.455592 -0.055247 
11.594896 -9.635620 83.454010 -2.542597 -0.430233 -112.056753 -1.169964 -4.949223 1.264711 -0.505015 -2.198493 0.534477 -0.505015 -2.198494 0.534479 -0.376791 -1.649315 0.398992 1.465364 -11.983496 -3.800010 1.174611 13.909751 -6.640679 10.508062 8.935943 -0.941338 43.264057 -17.577113 -13.540632 -30.204623 -60.945068 86.902286 -48.030901 44.141405 49.515327 -7.614304 7.234786 -5.802530 -42.291261 -13.009840 17.423143 -11.448002 -65.219311 -50.613160 36.075331 25.725209 -74.810502 -0.586613 0.953474 13.254680 -2.373684 -12.486954 2.967444 -0.336721 5.168989 0.178723 0.179709 -0.724465 0.005006 1.697990 -0.722022 -10.389128 2.364944 -2.376143 -4.527334 -22.065126 -0.385704 -5.611721 6.351422 0.796258 -0.080048 
11.507698 -9.778743 83.411339 -2.464563 -0.248526 -112.221224 -1.303147 -4.873794 1.322163 -0.567768 -2.178714 0.546328 -0.567768 -2.178714 0.546328 -0.423827 -1.634546 0.407673 1.474812 -11.944030 -3.814918 1.184530 13.982981 -6.666312 10.516008 8.914645 -0.975122 43.348315 -17.701887 -13.424873 -30.088602 -61.064862 86.647247 -48.041881 44.132714 49.508305 -7.613462 7.262991 -5.796070 -42.207656 -12.951655 17.518616 -11.481946 -65.254193 -50.726749 36.036047 25.757772 -74.899021 -0.569946 1.072438 12.787501 -2.572693 -12.434371 2.414557 -0.448110 5.552361 1.480995 0.244817 -0.925931 -0.051936 1.620167 -0.575333 -10.925320 2.426286 -2.321214 -4.858014 -23.687690 -1.593611 -7.814120 6.308546 1.137903 -0.104874 
11.443642 -9.850853 83.372292 -2.441471 -0.055791 -112.443779 -1.466328 -4.838782 1.385447 -0.637587 -2.166975 0.571992 -0.637587 -2.166974 0.571992 -0.476105 -1.625831 0.426682 1.473845 -11.911427 -3.829629 1.174913 14.043019 -6.695845 10.513550 8.861614 -0.988530 43.456652 -17.881399 -13.281160 -29.810091 -61.197737 86.267256 -48.100723 44.093225 49.458018 -7.586004 7.256858 -5.781289 -42.130813 -12.795790 17.616683 -11.268446 -65.268072 -51.078935 35.956872 25.743833 -75.011234 -0.581792 1.065345 12.220517 -2.917907 -12.254319 1.976377 -0.454235 5.940597 2.598667 0.305970 -1.129195 -0.107109 1.528378 -0.433754 -11.329028 2.454759 -2.369304 -5.063025 -24.788495 -2.824413 -9.731642 5.903142 1.511460 -0.137282 
11.394680 -9.886680 83.334679 -2.436842 0.109954 -112.751786 -1.623205 -4.817596 1.490957 -0.706965 -2.158419 0.612332 -0.706965 -2.158419 0.612331 -0.527998 -1.619526 0.456697 1.458320 -11.887947 -3.844859 1.137617 14.085491 -6.732380 10.503993 8.768388 -1.001026 43.588409 -18.034146 -13.142112 -29.513954 -61.352939 85.898337 -48.159179 44.036132 49.396751 -7.570671 7.278991 -5.775537 -42.019959 -12.642599 17.750630 -10.861646 -65.277894 -51.612902 35.866870 25.683577 -75.136480 -0.638264 0.997386 11.881911 -3.220370 -11.970035 1.840748 -0.345716 6.322101 3.237627 0.273019 -1.348098 -0.163379 1.470306 -0.291265 -11.547207 2.437746 -2.528370 -5.126385 -24.864771 -3.975245 -11.120219 4.829259 2.002990 -0.187678 
11.327905 -9.887652 83.300156 -2.433023 0.229306 -113.112570 -1.757069 -4.791088 1.605614 -0.761777 -2.156775 0.660740 -0.761777 -2.156775 0.660740 -0.568934 -1.618410 0.492810 1.413990 -11.864705 -3.845794 1.051340 14.126618 -6.753974 10.516178 8.706129 -0.979021 43.704205 -18.200002 -13.055387 -29.211763 -61.499699 85.561343 -48.233532 44.010201 49.342694 -7.578191 7.328520 -5.751408 -41.875763 -12.512251 17.869344 -10.434479 -65.299347 -52.124841 35.754435 25.592925 -75.261356 -0.737311 0.989553 11.851762 -3.319851 -11.737832 1.893202 -0.206702 6.589478 3.423111 0.146049 -1.448025 -0.160336 1.454507 -0.180774 -11.558604 2.397751 -2.705344 -4.992403 -23.736466 -5.086020 -12.012384 3.092243 2.628154 -0.260970 
11.222309 -9.897736 83.271912 -2.458993 0.257102 -113.462310 -1.830059 -4.804704 1.687548 -0.793334 -2.177996 0.705985 -0.793334 -2.177997 0.705986 -0.592414 -1.634419 0.526598 1.329827 -11.832479 -3.823340 0.898423 14.183293 -6.748295 10.549054 8.672894 -0.932885 43.752078 -18.345934 -12.983277 -28.942957 -61.604195 85.326261 -48.325108 44.044413 49.296361 -7.607296 7.427716 -5.721438 -41.748838 -12.403781 17.949141 -10.099613 -65.320487 -52.456324 35.641351 25.489711 -75.389319 -0.799421 1.054695 12.008481 -3.225140 -11.681041 1.864015 -0.113637 6.753385 3.475710 -0.002624 -1.401859 -0.088764 1.528544 -0.196224 -11.420355 2.357768 -2.753980 -4.878623 -21.321899 -5.988039 -12.719517 0.716198 3.189988 -0.369587 
11.110269 -9.939529 83.247604 -2.546067 0.195769 -113.774573 -1.840162 -4.891217 1.740977 -0.802650 -2.220272 0.738546 -0.802650 -2.220271 0.738544 -0.599229 -1.666179 0.550923 1.209437 -11.800391 -3.781075 0.684650 14.238620 -6.720375 10.578124 8.621165 -0.911081 43.727701 -18.426467 -12.882380 -28.750397 -61.636023 85.211972 -48.425976 44.107876 49.240090 -7.590133 7.426598 -5.695968 -41.715636 -12.256447 17.912951 -9.805994 -65.295229 -52.681352 35.556674 25.388196 -75.486814 -0.739545 1.052302 12.110343 -3.206692 -11.701638 1.687173 0.039256 6.893131 3.733394 -0.141075 -1.306227 -0.052662 1.643512 -0.415276 -11.298614 2.337780 -2.625534 -5.061603 -18.117022 -6.106548 -12.798502 -1.909582 3.282466 -0.485861 
11.023153 -10.020420 83.224564 -2.677346 0.118606 -113.992893 -1.818951 -5.034091 1.737035 -0.801584 -2.268075 0.748008 -0.801584 -2.268076 0.748009 -0.598334 -1.702044 0.557960 1.066278 -11.772752 -3.715855 0.437318 14.285325 -6.658249 10.584042 8.589830 -0.909592 43.701634 -18.439458 -12.822124 -28.647152 -61.560912 85.159161 -48.476291 44.126287 49.204956 -7.495528 7.304822 -5.688504 -41.795761 -12.105527 17.791313 -9.544611 -65.200023 -52.888467 35.539697 25.284585 -75.512345 -0.631670 0.939034 12.061263 -3.286254 -11.670527 1.591660 0.171054 6.988311 3.984126 -0.217870 -1.189014 -0.012660 1.655598 -0.769788 -11.333942 2.399142 -2.388613 -5.545087 -15.019383 -5.499098 -11.982103 -4.065116 2.850127 -0.545979 
10.932289 -10.111168 83.203377 -2.776935 0.099027 -114.129517 -1.806767 -5.133195 1.695864 -0.801895 -2.308176 0.732131 -0.801895 -2.308176 0.732130 -0.598575 -1.732100 0.545995 0.926317 -11.759091 -3.632275 0.204673 14.306852 -6.559136 10.610461 8.645638 -0.901120 43.716800 -18.392916 -12.905651 -28.699919 -61.405620 85.166592 -48.434152 44.070703 49.231809 -7.385549 7.214608 -5.689264 -41.897719 -12.086846 17.688855 -9.391798 -65.089428 -53.064798 35.590511 25.192427 -75.437978 -0.560742 0.865496 11.993754 -3.336226 -11.634568 1.650523 0.229801 7.065534 4.059042 -0.259485 -1.080959 0.003115 1.498123 -1.016520 -11.478262 2.594136 -2.221753 -5.991486 -12.644239 -4.716798 -11.121231 -5.269380 2.186742 -0.511262 
10.818180 -10.195848 83.187119 -2.851442 0.124078 -114.214457 -1.802812 -5.174255 1.637174 -0.804620 -2.326902 0.700008 -0.804620 -2.326902 0.700009 -0.600716 -1.746104 0.521871 0.810048 -11.786127 -3.538146 0.023957 14.254396 -6.428047 10.636875 8.698740 -0.936275 43.747567 -18.242879 -13.046171 -28.975968 -61.270683 85.318768 -48.330726 43.988877 49.304168 -7.352717 7.172960 -5.741197 -41.904802 -12.155753 17.654815 -9.462782 -65.053461 -53.098447 35.674467 25.146004 -75.305349 -0.535699 0.868896 11.980189 -3.317333 -11.635079 1.747495 0.247097 7.104251 3.994703 -0.295080 -0.967494 0.012370 1.288510 -1.118827 -11.571682 2.852618 -2.179857 -6.104594 -10.807903 -4.036640 -10.608908 -5.827215 1.561940 -0.440575 
10.679461 -10.276859 83.177277 -2.926144 0.176887 -114.285027 -1.817818 -5.193076 1.571534 -0.813334 -2.333929 0.666324 -0.813334 -2.333929 0.666321 -0.607371 -1.751339 0.496564 0.732773 -11.836679 -3.439582 -0.079056 14.160380 -6.270743 10.674559 8.771154 -0.983252 43.768996 -18.012290 -13.218588 -29.410371 -61.214081 85.608683 -48.214462 43.925008 49.399623 -7.372899 7.193052 -5.754176 -41.810590 -12.285775 17.627602 -9.724042 -65.122807 -52.982501 35.760350 25.188618 -75.234342 -0.557798 0.926410 12.006695 -3.243872 -11.685615 1.732499 0.293476 7.129346 4.025324 -0.352102 -0.860644 0.020930 1.174540 -1.207662 -11.470303 3.000209 -2.048626 -6.049211 -9.529010 -3.546563 -10.310870 -5.823916 1.005016 -0.349398 
10.537145 -10.358903 83.172195 -2.997895 0.242526 -114.360603 -1.844981 -5.214084 1.504646 -0.827047 -2.333682 0.634088 -0.827046 -2.333682 0.634091 -0.617777 -1.751124 0.472342 0.686532 -11.895046 -3.341410 -0.122559 14.053312 -6.100577 10.715090 8.837293 -1.000988 43.809940 -17.779211 -13.377527 -29.830493 -61.222571 85.890332 -48.119683 43.914209 49.482992 -7.431486 7.219112 -5.738714 -41.669649 -12.395812 17.601208 -10.045927 -65.213239 -52.790816 35.806485 25.304662 -75.277024 -0.600159 1.001026 12.024338 -3.151423 -11.746295 1.664795 0.386033 7.144780 4.104733 -0.435606 -0.767138 0.027414 1.214137 -1.387860 -11.098946 2.954941 -1.734250 -6.205897 -8.643404 -3.184681 -9.947707 -5.465586 0.539175 -0.262056 
10.395411 -10.477708 83.198563 -3.040948 0.283334 -114.432921 -1.859903 -5.241224 1.444911 -0.839511 -2.330881 0.607929 -0.839511 -2.330881 0.607932 -0.627228 -1.749001 0.452685 0.663310 -11.958651 -3.256913 -0.127768 13.937095 -5.946586 10.738437 8.816859 -0.995957 43.901789 -17.563379 -13.484288 -30.032034 -61.229169 85.986160 -48.039121 43.919189 49.553583 -7.454377 7.189621 -5.704835 -41.597607 -12.466917 17.565645 -10.113575 -65.244480 -52.761777 35.824557 25.449131 -75.369621 -0.599546 1.078112 11.944552 -3.067490 -11.793385 1.621983 0.513356 7.130196 4.253390 -0.542253 -0.663489 0.024291 1.352140 -1.629038 -10.703702 2.793081 -1.336083 -6.590854 -8.016753 -2.869192 -9.398567 -4.921642 0.172577 -0.158640 
10.321946 -10.621072 83.212837 -3.031575 0.309068 -114.572202 -1.863883 -5.259174 1.471629 -0.848430 -2.330981 0.594386 -0.848430 -2.330981 0.594383 -0.633966 -1.749066 0.442489 0.649644 -12.016023 -3.194247 -0.124459 13.832108 -5.830571 10.749315 8.776021 -0.997934 44.024739 -17.482595 -13.584101 -30.006906 -61.132372 85.906192 -47.989264 43.895252 49.580029 -7.423659 7.130496 -5.686500 -41.618286 -12.497556 17.535852 -9.967666 -65.192585 -52.875063 35.799426 25.555443 -75.434303 -0.572405 1.141308 11.859481 -2.998109 -11.795862 1.619683 0.674702 7.111474 4.436038 -0.655447 -0.558755 0.007181 1.472693 -1.722657 -10.524828 2.708850 -1.083940 -6.951270 -7.617976 -2.541777 -8.638848 -4.351067 -0.118240 -0.099122 
